<?xml version="1.0" encoding="UTF-8" standalone="no"?>
<svg
   xmlns:dc="http://purl.org/dc/elements/1.1/"
   xmlns:cc="http://creativecommons.org/ns#"
   xmlns:rdf="http://www.w3.org/1999/02/22-rdf-syntax-ns#"
   xmlns:svg="http://www.w3.org/2000/svg"
   xmlns="http://www.w3.org/2000/svg"
   xmlns:sodipodi="http://sodipodi.sourceforge.net/DTD/sodipodi-0.dtd"
   xmlns:inkscape="http://www.inkscape.org/namespaces/inkscape"
   width="165.99474"
   height="85.485374"
   version="1.1"
   id="svg1603"
   sodipodi:docname="stream-diamond.svg"
   inkscape:version="0.92.3 (2405546, 2018-03-11)">
  <metadata
     id="metadata1609">
    <rdf:RDF>
      <cc:Work
         rdf:about="">
        <dc:format>image/svg+xml</dc:format>
        <dc:type
           rdf:resource="http://purl.org/dc/dcmitype/StillImage" />
        <dc:title></dc:title>
      </cc:Work>
    </rdf:RDF>
  </metadata>
  <defs
     id="defs1607" />
  <sodipodi:namedview
     pagecolor="#ffffff"
     bordercolor="#666666"
     borderopacity="1"
     objecttolerance="10"
     gridtolerance="10"
     guidetolerance="10"
     inkscape:pageopacity="0"
     inkscape:pageshadow="2"
     inkscape:window-width="1920"
     inkscape:window-height="1010"
     id="namedview1605"
     showgrid="false"
     inkscape:zoom="2.3137255"
     inkscape:cx="159.10827"
     inkscape:cy="-14.622195"
     inkscape:window-x="0"
     inkscape:window-y="0"
     inkscape:window-maximized="1"
     inkscape:current-layer="layer4"
     fit-margin-top="0"
     fit-margin-left="0"
     fit-margin-right="0"
     fit-margin-bottom="0"
     inkscape:pagecheckerboard="true" />
  <g
     inkscape:groupmode="layer"
     id="layer1"
     inkscape:label="blue1"
     style="display:inline;opacity:1"
     transform="translate(36.20521,-4.5507808)">
    <circle
       style="display:inline;opacity:1;fill:#6cd2ff;fill-opacity:1;fill-rule:evenodd;stroke:none;stroke-width:3;stroke-linecap:butt;stroke-linejoin:miter;stroke-miterlimit:4;stroke-dasharray:none;stroke-opacity:1"
       id="path920"
       cx="111.45269"
       cy="71.699318"
       r="18.336836" />
    <path
       style="fill:#94deff;fill-opacity:1;fill-rule:evenodd;stroke:none;stroke-width:1px;stroke-linecap:butt;stroke-linejoin:miter;stroke-opacity:1"
       d="M -22.409194,4.5507812 -36.20521,71.470703 H 79.895502 c 0.162089,-11.643606 12.640786,-21.107422 27.914048,-21.107422 2.02643,0 4.00049,0.172137 5.90639,0.488281 l 9.54577,-46.3007808 z"
       id="rect850"
       inkscape:connector-curvature="0" />
  </g>
  <g
     inkscape:groupmode="layer"
     id="layer3"
     inkscape:label="blue2"
     transform="translate(36.20521,-4.5507808)">
    <path
       style="display:inline;opacity:1;fill:#6cd2ff;fill-opacity:1;fill-rule:evenodd;stroke:none;stroke-width:1px;stroke-linecap:butt;stroke-linejoin:miter;stroke-opacity:1"
       d="M -36.20521,71.470703 H 90.121094 c 0.123869,-11.643606 9.660137,-21.107422 21.332026,-21.107422 1.5486,0 3.05719,0.172137 4.51368,0.488281 l 7.29492,-46.3007812 z"
       id="rect850-6"
       inkscape:connector-curvature="0"
       sodipodi:nodetypes="ccsccc" />
  </g>
  <g
     inkscape:groupmode="layer"
     id="layer5"
     inkscape:label="play"
     transform="translate(37.601694)">
    <path
       transform="translate(-1.3964844,-4.5507808)"
       inkscape:connector-curvature="0"
       id="path2837"
       d="m 106.31798,62.622282 5.4e-4,18.959787 c 0,0 9.06353,-6.821802 12.99048,-9.479894 z"
       sodipodi:nodetypes="cccc"
       style="display:inline;fill:#060606;fill-opacity:1;stroke:none;stroke-width:2;stroke-miterlimit:4;stroke-dasharray:none;stroke-opacity:1" />
  </g>
  <g
     inkscape:groupmode="layer"
     id="layer2"
     inkscape:label="text"
     transform="translate(36.20521,-4.5507808)"
     style="display:none">
    <g
       aria-label="LIVE



















"
       transform="matrix(4.5450682,0,0,3.9164386,-58.413544,-68.123532)"
       style="font-style:normal;font-variant:normal;font-weight:normal;font-stretch:normal;font-size:10.66666698px;line-height:3.99999991%;font-family:'Ubuntu Condensed';-inkscape-font-specification:'Ubuntu Condensed, ';letter-spacing:0px;word-spacing:0px;fill:#000000;fill-opacity:1;stroke:none;stroke-width:0.23701952px;stroke-linecap:butt;stroke-linejoin:miter;stroke-opacity:1"
       id="flowRoot852">
      <path
         d="m 21.307234,30.138714 v 0.821333 h -3.296 v -7.392 h 0.96 v 6.570667 z"
         style="stroke-width:0.23701952px"
         id="path5495"
         inkscape:connector-curvature="0" />
      <path
         d="m 22.469568,23.568047 h 0.96 v 7.392 h -0.96 z"
         style="stroke-width:0.23701952px"
         id="path5497"
         inkscape:connector-curvature="0" />
      <path
         d="m 26.456901,30.960047 q -0.245333,-0.8 -0.490666,-1.610667 -0.245334,-0.821333 -0.490667,-1.717333 -0.234667,-0.896 -0.469333,-1.888 -0.234667,-1.002667 -0.469334,-2.176 h 1.002667 q 0.138667,0.821333 0.309333,1.653333 0.170667,0.821334 0.362667,1.621334 0.192,0.8 0.384,1.557333 0.202667,0.746667 0.394667,1.418667 0.192,-0.672 0.384,-1.418667 0.202666,-0.757333 0.394666,-1.557333 0.192,-0.8 0.362667,-1.621334 0.170667,-0.832 0.309333,-1.653333 h 0.970667 q -0.234667,1.173333 -0.469333,2.176 -0.234667,0.992 -0.48,1.888 -0.234667,0.896 -0.48,1.717333 -0.245334,0.810667 -0.490667,1.610667 z"
         style="stroke-width:0.23701952px"
         id="path5499"
         inkscape:connector-curvature="0" />
      <path
         d="m 30.511234,30.960047 v -7.392 h 3.317334 v 0.821333 h -2.357334 v 2.293334 h 2.133334 v 0.8 h -2.133334 v 2.656 h 2.528001 v 0.821333 z"
         style="stroke-width:0.23701952px"
         id="path5501"
         inkscape:connector-curvature="0" />
    </g>
  </g>
  <g
     inkscape:groupmode="layer"
     id="layer4"
     inkscape:label="text 2"
     transform="translate(37.601694)">
    <g
       aria-label="STREAM"
       transform="translate(-4.5381355,17.775423)"
       style="font-style:normal;font-variant:normal;font-weight:normal;font-stretch:normal;font-size:10.66666698px;line-height:3.99999991%;font-family:'Ubuntu Condensed';-inkscape-font-specification:'Ubuntu Condensed, ';letter-spacing:0px;word-spacing:0px;fill:#000000;fill-opacity:1;stroke:none;stroke-width:1px;stroke-linecap:butt;stroke-linejoin:miter;stroke-opacity:1"
       id="flowRoot5559">
      <path
         d="m -7.9170054,26.144 q 2.0159999,0 3.0986665,-1.12 1.12,-1.12 1.12,-3.024 0,-1.008 -0.336,-1.792 -0.336,-0.784 -0.896,-1.418666 -0.5226666,-0.634667 -1.2319999,-1.157334 -0.7093333,-0.522666 -1.456,-1.045333 -0.8586666,-0.597333 -1.7919999,-1.269333 -0.9333333,-0.672 -1.7173333,-1.568 -0.746667,-0.896 -1.232,-2.090667 -0.485333,-1.194666 -0.485333,-2.7999997 0,-1.568 0.522666,-2.8373333 0.56,-1.2693333 1.493334,-2.1653332 0.9706663,-0.896 2.2773329,-1.3813333 1.344,-0.4853333 2.8746666,-0.4853333 1.4933333,0 2.7626666,0.3733333 1.2693333,0.3733333 2.1279999,0.8959999 L -1.8316723,5.909334 q -0.784,-0.5226666 -1.7173333,-0.784 -0.8959999,-0.2986666 -1.9039999,-0.2986666 -1.8293333,0 -2.9493332,1.008 -1.0826667,0.9706666 -1.0826667,2.8746665 0,1.0453333 0.336,1.8293331 0.3733333,0.784 0.9333333,1.418667 0.5973333,0.634666 1.344,1.157333 0.7839999,0.522667 1.6426666,1.082667 0.8586666,0.56 1.7546666,1.232 0.896,0.672 1.6053333,1.568 0.7466666,0.858666 1.1946666,2.053333 0.48533331,1.157333 0.48533331,2.762666 0,1.456 -0.44799998,2.762667 -0.44800003,1.306667 -1.41866663,2.314667 -0.9333333,0.970666 -2.3893332,1.568 -1.4186667,0.56 -3.3599999,0.56 -1.792,0 -3.1359996,-0.410667 -1.344,-0.410667 -2.389334,-1.082667 l 1.045334,-2.688 q 0.970666,0.597334 1.978666,0.970667 1.0453336,0.336 2.3893336,0.336 z"
         style="font-size:37.33333206px"
         id="path5569" />
      <path
         d="M 16.065577,2.5866675 V 5.461334 H 10.316244 V 28.458667 H 6.9562439 V 5.461334 H 1.2069108 V 2.5866675 Z"
         style="font-size:37.33333206px"
         id="path5571" />
      <path
         d="m 19.716078,2.9600008 q 2.613333,-0.6346667 5.04,-0.6346667 1.941333,0 3.509333,0.448 1.568,0.448 2.688,1.4186666 1.12,0.9706667 1.717333,2.5013333 0.634667,1.5306666 0.634667,3.696 0,2.688 -1.045333,4.368 -1.008,1.642666 -2.762667,2.501333 0.448,0.746667 1.12,2.053333 0.709333,1.269334 1.418667,2.837333 0.746666,1.530667 1.418666,3.173334 0.709334,1.642666 1.194667,3.136 h -3.36 q -0.410667,-1.12 -1.045333,-2.538667 -0.597334,-1.418667 -1.269334,-2.8 -0.672,-1.418667 -1.344,-2.688 -0.672,-1.306666 -1.194666,-2.202666 -0.597334,0.07467 -1.232,0.112 -0.634667,0.03733 -1.269333,0.03733 h -0.933334 v 10.08 H 19.716078 Z M 23.001411,15.616 h 1.418667 q 2.576,0 3.957333,-1.157333 1.381333,-1.194667 1.381333,-4.069333 0,-1.4560001 -0.373333,-2.4266667 -0.336,-1.008 -1.008,-1.568 -0.634667,-0.5973333 -1.568,-0.8586666 -0.896,-0.2613333 -2.016,-0.2613333 -0.970666,0 -1.792,0.112 z"
         style="font-size:37.33333206px"
         id="path5573" />
      <path
         d="M 38.89316,28.458667 V 2.5866675 H 50.503826 V 5.461334 H 42.25316 V 13.488 h 7.466666 v 2.8 H 42.25316 v 9.296 h 8.848 v 2.874667 z"
         style="font-size:37.33333206px"
         id="path5575" />
      <path
         d="m 64.273994,2.5866675 q 0.896,2.7999999 1.754667,5.6746664 0.896,2.8373331 1.717333,5.9733331 0.858667,3.136 1.68,6.645333 0.858667,3.509333 1.717334,7.578667 h -3.36 q -0.298667,-1.68 -0.634667,-3.322667 -0.298667,-1.642667 -0.634667,-3.285333 h -8.138666 q -0.373333,1.642666 -0.672,3.285333 -0.298667,1.642667 -0.597333,3.322667 h -3.248 q 0.821333,-4.069334 1.68,-7.578667 0.858666,-3.509333 1.68,-6.645333 0.858666,-3.136 1.717333,-5.9733331 0.896,-2.8746665 1.792,-5.6746664 z m -1.829333,3.8079998 q -0.933333,3.0986666 -1.792,6.2346667 -0.858666,3.136 -1.642666,6.421333 h 6.831999 q -0.746666,-3.285333 -1.605333,-6.421333 -0.858667,-3.1360001 -1.792,-6.2346667 z"
         style="font-size:37.33333206px"
         id="path5577" />
      <path
         d="m 84.057161,24.874667 q -0.746667,-2.688 -1.530667,-5.152 -0.784,-2.464 -1.530666,-4.629333 -0.709333,-2.202667 -1.381333,-3.994667 -0.672,-1.7919998 -1.232,-3.1359997 -0.149334,2.1279997 -0.261334,4.7039997 -0.07467,2.538667 -0.186666,5.226667 -0.07467,2.688 -0.149334,5.413333 -0.03733,2.688 -0.07467,5.152 h -3.210667 q 0.112,-3.36 0.224,-6.757334 0.112,-3.434666 0.261333,-6.719999 0.186667,-3.322667 0.373334,-6.4586667 0.224,-3.1359999 0.485333,-5.9359998 h 3.322667 q 0.672,1.6053332 1.530666,3.8453332 0.858667,2.2026666 1.717333,4.6293333 0.896,2.426666 1.717334,4.853333 0.821333,2.426667 1.418666,4.442667 0.597334,-2.016 1.381334,-4.442667 0.784,-2.426667 1.642666,-4.853333 0.858667,-2.4266667 1.68,-4.6293333 0.858667,-2.24 1.530667,-3.8453332 h 3.322666 q 0.261334,2.7999999 0.448,5.9359998 0.224,3.1359997 0.373334,6.4586667 0.186666,3.285333 0.298666,6.719999 0.112,3.397334 0.224,6.757334 h -3.210666 q -0.07467,-2.464 -0.149334,-5.189334 Q 93.054494,20.544 92.942494,17.818667 92.867827,15.056 92.755827,12.48 q -0.112,-2.6133328 -0.261333,-4.778666 -0.336,0.9333333 -0.858667,2.352 -0.485333,1.381333 -1.045333,3.024 -0.522666,1.642666 -1.12,3.397333 -0.56,1.717333 -1.082666,3.322667 -0.485334,1.605333 -0.896,2.949333 -0.373334,1.306666 -0.597334,2.128 z"
         style="font-size:37.33333206px"
         id="path5579" />
    </g>
  </g>
</svg>
