<svg xmlns="http://www.w3.org/2000/svg" width="451.2" height="133.4" viewBox="0 0 451.2 133.4"><defs><style>.a{fill:#fff;}</style></defs><title>Asset 1</title><path class="a" d="M187.89,131.16,179.33,23,166,24.13a2.35,2.35,0,0,1-2.87-2.43L161.84,4.78c-.14-1.77.67-3,2.45-3.12L182.13,0H15C5.39,0,0,9,0,15.63v40a11.48,11.48,0,0,1,9.94,11.7A11.48,11.48,0,0,1,0,79v39.94c0,5.63,4.67,14.33,15.79,14.33H34.62L25.28,15.43c-.14-1.77.67-2.62,2.44-2.76L68.88,9.45a2.38,2.38,0,0,1,2.87,2.48l1.34,16.93a2.36,2.36,0,0,1-2.44,2.88L49,33.47l2.17,27.38L70,59.36a2.36,2.36,0,0,1,2.87,2.45l1.34,16.92a2.36,2.36,0,0,1-2.45,2.87L52.95,83.1l3.09,39,21.63-1.72c1.77-.14,2.73.45,2.87,2.23l.86,10.65H97.61L87.87,10.45c-.14-1.77.67-2.62,2.45-2.76l12.52-.94a3.71,3.71,0,0,1,2.24.62A4.06,4.06,0,0,1,106.63,9l24.56,59.47L126.37,7.61a2.36,2.36,0,0,1,2.45-2.87L145.7,3.39a2.36,2.36,0,0,1,2.87,2.45L158.68,133.4s0-.16,0-.16h31.18a1.55,1.55,0,0,1-1-.33,2.28,2.28,0,0,1-1-1.75"/><path class="a" d="M190.24,133.23h0Z"/><polygon class="a" points="119.94 133.23 139.65 133.23 115.21 73.49 119.94 133.23"/><path class="a" d="M450.57,55.42h.63V16.18C451.2,3.48,441.44,0,436.08,0H276.47a40.52,40.52,0,0,1,4,5.82,23.85,23.85,0,0,1,2.64,9.29l.57,7.29A3.29,3.29,0,0,1,281.49,26l-16.9,6c-1.6.64-2.48.08-2.62-1.7l-1-12.36a4.56,4.56,0,0,0-4.91-4.2l-1.52.12a4.55,4.55,0,0,0-4.19,4.93l1.37,17.3a13.82,13.82,0,0,0,1,3.55,8.74,8.74,0,0,0,2.33,2.87l26.32,16.66a12.33,12.33,0,0,1,4.32,5.11,33.36,33.36,0,0,1,1.72,6.08l2.59,32.7a23.27,23.27,0,0,1-1.16,9.47,24.15,24.15,0,0,1-11.7,13.75,23.18,23.18,0,0,1-9.14,2.64l-7.21.57a23.11,23.11,0,0,1-9.45-1.16,24.15,24.15,0,0,1-13.72-11.73,23.27,23.27,0,0,1-2.63-9.17L233.61,89.2a3.26,3.26,0,0,1,2.2-3.62l16.9-5.94q2.4-1,2.62,1.71l1.85,23.39a4.55,4.55,0,0,0,4.91,4.2l1.52-.12a4.55,4.55,0,0,0,4.19-4.92l-2-25.1a21,21,0,0,0-1.11-4.31,7.45,7.45,0,0,0-2.55-3.24l-26-16.88a17.58,17.58,0,0,1-4.5-5,16.93,16.93,0,0,1-1.79-6.94l-1.81-22.82a23.24,23.24,0,0,1,1.16-9.47,25.69,25.69,0,0,1,4.52-8.26c.48-.57,1,.14,1.53-1.88H216.09l1.34,17.15c.14,1.78-.68,2.86-2.44,3l-13.47,1.13,8.57,108.22c.14,1.78-.68,2.52-2.45,2.66l-16.08,1.07H435.69a15.2,15.2,0,0,0,15.51-14.66V79.13h-.63a11.86,11.86,0,0,1,0-23.72m-134.13,58a4.55,4.55,0,1,1,4.54-4.55,4.54,4.54,0,0,1-4.54,4.55m0-15.78A4.55,4.55,0,1,1,321,93.06a4.55,4.55,0,0,1-4.54,4.55m0-16.09A4.55,4.55,0,1,1,321,77a4.55,4.55,0,0,1-4.54,4.56m0-16.09A4.55,4.55,0,1,1,321,60.88a4.55,4.55,0,0,1-4.54,4.55m0-16.08A4.55,4.55,0,1,1,321,44.79a4.55,4.55,0,0,1-4.54,4.56m0-16.09A4.55,4.55,0,1,1,321,28.7a4.55,4.55,0,0,1-4.54,4.55m65,80.42A44.71,44.71,0,1,1,426,69a44.66,44.66,0,0,1-44.61,44.71"/><path class="a" d="M370.11,75.59c-.15.25-.3.48-.45.71s-.3.46-.45.71a32.71,32.71,0,0,0-1.86,3.35q-.75,1.56-1.19,2.75c-.35.89-.65,1.76-.89,2.61h11.53a.59.59,0,0,1,.67.67v7.07a.59.59,0,0,1-.67.67H357.16q-.52,0-.67-.67a21.49,21.49,0,0,1-.26-2.79c0-.92,0-1.75,0-2.49a19.8,19.8,0,0,1,.3-2.53,15.2,15.2,0,0,1,.52-2.68q.37-1.27.75-2.31a17.26,17.26,0,0,1,1-2.16q1.93-3.49,3.65-6.17t3-4.61q1.56-2.23,2.9-3.87a3,3,0,0,0,.3-1.56,16.41,16.41,0,0,1,0-2.23V51.26a1.78,1.78,0,0,0-1.78-1.79h-.6a1.78,1.78,0,0,0-1.79,1.79v4.91a1.27,1.27,0,0,1-1,1.34l-6.77,1.79q-1,.3-1-.74V50.88a9.07,9.07,0,0,1,.74-3.64,9.45,9.45,0,0,1,5-5,9.07,9.07,0,0,1,3.65-.74H368a9.08,9.08,0,0,1,3.65.74,9.43,9.43,0,0,1,5,5,9,9,0,0,1,.74,3.64v8.85a17.71,17.71,0,0,1-.56,4.47A13.69,13.69,0,0,1,375,68.3q-1.12,1.78-2.42,3.65t-2.49,3.64"/><path class="a" d="M406.19,75.81a.93.93,0,0,1,.3.67v6.18a1,1,0,0,1-.3.74,1.43,1.43,0,0,1-.67.3h-2.38v9.38a.92.92,0,0,1-1,1h-6.62a.92.92,0,0,1-1-1V83.7H382.9a.92.92,0,0,1-.67-.3.86.86,0,0,1-.3-.74V76.33a1.28,1.28,0,0,1,.08-.52.31.31,0,0,1,.07-.23,91,91,0,0,0,4.8-11q1.9-5.31,3-9.67t1.6-7.48q.48-3.13.63-4.47a.8.8,0,0,1,.15-.45l.34-.33a.75.75,0,0,1,.56-.19h8.93a.92.92,0,0,1,1,1V75.51h2.38a1.43,1.43,0,0,1,.67.3M394.36,58.4q-.45,2.31-1.19,5.06-.59,2.38-1.67,5.43t-2.57,6.62h5.43Z"/></svg>